<?xml version="1.0" encoding="utf-8"?><!DOCTYPE svg PUBLIC "-//W3C//DTD SVG 1.1//EN" "http://www.w3.org/Graphics/SVG/1.1/DTD/svg11.dtd"><svg version="1.1" xmlns="http://www.w3.org/2000/svg" xmlns:xlink="http://www.w3.org/1999/xlink" width="32" height="32" viewBox="0 0 32 32" data-tags="brand,youtube"><g fill="#444" transform="scale(0.03125 0.03125)"><path fill="rgb(205, 32, 31)" d="M0 470.080v80.64c0 82.88 10.24 165.76 10.24 165.76s9.984 70.4 40.704 101.568c38.912 40.768 90.112 39.488 112.896 43.776 81.92 7.872 348.16 10.24 348.16 10.24s215.168-0.256 358.4-10.624c20.096-2.432 63.744-2.56 102.656-43.392 30.72-31.104 40.704-101.632 40.704-101.632s10.24-82.816 10.24-165.76v-80.512c0-82.944-10.24-165.76-10.24-165.76s-9.984-70.528-40.704-101.632c-38.912-40.832-82.56-40.96-102.656-43.392-143.232-10.368-358.4-10.624-358.4-10.624s-266.24 2.304-348.16 10.24c-22.784 4.288-73.984 3.008-112.896 43.776-30.72 31.168-40.704 101.568-40.704 101.568s-10.24 82.944-10.24 165.76zM406.272 644.8v-287.68l276.672 144.32-276.48 143.36z" /></g></svg>